<svg
   xmlns:dc="http://purl.org/dc/elements/1.1/"
   xmlns:cc="http://creativecommons.org/ns#"
   xmlns:rdf="http://www.w3.org/1999/02/22-rdf-syntax-ns#"
   xmlns:svg="http://www.w3.org/2000/svg"
   xmlns="http://www.w3.org/2000/svg"
   xmlns:xlink="http://www.w3.org/1999/xlink"
   id="svg837"
   version="1.1"
   viewBox="0 0 64.822915 94.720836"
   height="358"
   width="245">

  <rect x="0" y="0" width="100%" height="100%" fill="#000" />

  <g
     id="g1989"
     transform="translate(0,-202.27915)"
     style="display:inline">
    <g
       id="text1973"
       style="font-style:normal;font-weight:normal;font-size:10.58333302px;line-height:125%;font-family:sans-serif;letter-spacing:0px;word-spacing:0px;fill:#fdffff;fill-opacity:1;stroke:none;stroke-width:1;stroke-linecap:butt;stroke-linejoin:miter;stroke-miterlimit:4;stroke-dasharray:none;stroke-opacity:1"
       aria-label="le">
      <path
         id="path2012"
         style="font-style:normal;font-variant:normal;font-weight:normal;font-stretch:normal;font-family:Lobster;-inkscape-font-specification:Lobster;fill:#fdffff;fill-opacity:1;stroke:none;stroke-width:1;stroke-miterlimit:4;stroke-dasharray:none;stroke-opacity:1"
         d="m 31.096857,217.4995 q -0.508,0 -0.8255,-0.3175 -0.306917,-0.3175 -0.306917,-0.9525 0,-0.26458 0.08467,-0.68791 l 1.132416,-5.30225 1.566334,-0.21167 -1.217084,5.715 q -0.04233,0.15875 -0.04233,0.33867 0,0.21166 0.09525,0.30691 0.105833,0.0847 0.338667,0.0847 0.306916,0 0.5715,-0.254 0.264583,-0.26458 0.381,-0.67733 h 0.444499 q -0.391583,1.143 -1.005416,1.55575 -0.613833,0.40216 -1.217083,0.40216 z" />
      <path
         id="path2014"
         style="font-style:normal;font-variant:normal;font-weight:normal;font-stretch:normal;font-family:Lobster;-inkscape-font-specification:Lobster;fill:#fdffff;fill-opacity:1;stroke:none;stroke-width:1;stroke-miterlimit:4;stroke-dasharray:none;stroke-opacity:1"
         d="m 34.373225,217.4995 q -0.772583,0 -1.2065,-0.40216 -0.433917,-0.41275 -0.433917,-1.28059 0,-0.73025 0.28575,-1.60866 0.28575,-0.87842 0.931334,-1.51342 0.645583,-0.64558 1.640416,-0.64558 1.164167,0 1.164167,1.016 0,0.59266 -0.338667,1.09008 -0.338666,0.49742 -0.899583,0.80433 -0.560917,0.29634 -1.195917,0.33867 -0.02117,0.23283 -0.02117,0.3175 0,0.87842 0.656166,0.87842 0.296334,0 0.635,-0.15875 0.338667,-0.15875 0.613834,-0.40217 -0.28575,1.56633 -1.830917,1.56633 z m 0.02117,-2.70933 q 0.402166,-0.0106 0.751416,-0.26458 0.359834,-0.254 0.5715,-0.64559 0.22225,-0.40216 0.22225,-0.83608 0,-0.43392 -0.264583,-0.43392 -0.370417,0 -0.740833,0.67734 -0.359834,0.66675 -0.53975,1.50283 z" />
    </g>
    <g
       id="text1979"
       style="font-style:normal;font-weight:normal;font-size:10.58333302px;line-height:125%;font-family:sans-serif;letter-spacing:0px;word-spacing:0px;fill:#fdffff;fill-opacity:1;stroke:none;stroke-width:1;stroke-linecap:butt;stroke-linejoin:miter;stroke-miterlimit:4;stroke-dasharray:none;stroke-opacity:1"
       aria-label="Symbolique">
      <path
         id="path1991"
         style="font-style:normal;font-variant:normal;font-weight:normal;font-stretch:normal;font-family:Lobster;-inkscape-font-specification:Lobster;fill:#fdffff;fill-opacity:1;stroke:none;stroke-width:1;stroke-miterlimit:4;stroke-dasharray:none;stroke-opacity:1"
         d="m 10.489554,271.24219 q -0.5946962,-0.30148 -0.942518,-0.73886 -0.3478218,-0.43737 -0.4066194,-0.92994 -0.054012,-0.502 0.1948314,-0.99286 0.2105598,-0.41535 0.5527491,-0.66903 0.3516289,-0.24891 0.7447519,-0.29879 0.402562,-0.0451 0.761267,0.13675 0.330387,0.16749 0.4708,0.45225 0.145198,0.27533 0.05349,0.59667 -0.49086,-0.24884 -0.917481,-0.13288 -0.421835,0.10652 -0.646752,0.55018 -0.205774,0.4059 -0.08477,0.77575 0.121009,0.36986 0.526912,0.57563 0.5003,0.25363 0.988738,0.0859 0.502663,-0.17234 0.761077,-0.68208 0.224916,-0.44366 0.180475,-0.96455 -0.04444,-0.52088 -0.248174,-1.3361 -0.213042,-0.84367 -0.266791,-1.39301 -0.03953,-0.55399 0.214104,-1.05429 0.248844,-0.49086 0.718796,-0.7391 0.474738,-0.25769 1.071009,-0.24018 0.596272,0.0175 1.200407,0.32377 0.764609,0.38762 1.035864,0.97603 0.280694,0.59319 -0.02557,1.19733 -0.200989,0.39646 -0.523642,0.5414 -0.322654,0.14493 -0.643601,-0.0178 -0.358706,-0.18185 -0.427468,-0.58454 0.246349,-0.0412 0.46025,-0.2057 0.213902,-0.16447 0.333538,-0.40047 0.153134,-0.30206 0.06471,-0.57234 -0.08843,-0.27028 -0.399937,-0.4282 -0.377584,-0.19141 -0.761792,-0.0421 -0.369984,0.14468 -0.580543,0.56002 -0.191418,0.37758 -0.141798,0.81804 0.05441,0.43101 0.258533,1.17524 0.17181,0.59732 0.250012,1.0048 0.08764,0.41226 0.05191,0.88064 -0.0215,0.46372 -0.246421,0.90738 -0.306269,0.60414 -0.894939,0.92272 -0.57923,0.32337 -1.30805,0.30986 -0.71938,-0.009 -1.427351,-0.36763 z" />
      <path
         id="path1993"
         style="font-style:normal;font-variant:normal;font-weight:normal;font-stretch:normal;font-family:Lobster;-inkscape-font-specification:Lobster;fill:#fdffff;fill-opacity:1;stroke:none;stroke-width:1;stroke-miterlimit:4;stroke-dasharray:none;stroke-opacity:1"
         d="m 14.500388,275.55155 q -0.485737,-0.14874 -0.732093,-0.50088 -0.246357,-0.35215 -0.100716,-0.82777 0.176628,-0.57681 0.750582,-0.78845 0.570855,-0.20153 1.360612,-0.21426 l 0.288766,-0.50927 q -0.392626,0.23396 -0.733396,0.26243 -0.340771,0.0285 -0.654476,-0.0676 -0.485737,-0.14874 -0.696361,-0.54529 -0.200504,-0.39345 -0.01458,-1.00062 0.07747,-0.25298 0.282374,-0.63298 l 1.682822,-3.03765 1.457212,0.44622 -1.782176,3.21753 q -0.06754,0.11214 -0.107827,0.24369 -0.136345,0.44526 0.167241,0.53822 0.263108,0.0806 0.53367,-0.0801 0.273662,-0.17077 0.509749,-0.50801 l 1.721654,-3.09217 1.457211,0.44622 -2.439646,4.38868 q 0.535317,-0.0132 0.927942,-0.24713 0.392626,-0.23396 0.790237,-0.80952 l 0.42502,0.13015 q -0.549015,0.81697 -1.14466,1.09945 -0.592546,0.27236 -1.225959,0.24442 l -0.374902,0.68213 q -0.502968,0.91962 -1.110379,1.13208 -0.61051,0.22258 -1.237921,0.0305 z m 0.009,-0.86059 q 0.172032,0.0527 0.405216,-0.13049 0.233183,-0.18317 0.457504,-0.59042 l 0.150581,-0.27488 q -1.103268,0.0606 -1.255106,0.55649 -0.04028,0.13155 0.0198,0.26064 0.06009,0.12908 0.222,0.17866 z" />
      <path
         id="path1995"
         style="font-style:normal;font-variant:normal;font-weight:normal;font-stretch:normal;font-family:Lobster;-inkscape-font-specification:Lobster;fill:#fdffff;fill-opacity:1;stroke:none;stroke-width:1;stroke-miterlimit:4;stroke-dasharray:none;stroke-opacity:1"
         d="m 24.95961,275.19932 q -0.637376,-0.10262 -0.886559,-0.48576 -0.237052,-0.39191 -0.156305,-0.89346 0.03533,-0.21942 0.131309,-0.48268 0.09766,-0.2737 0.191964,-0.52651 0.104748,-0.25113 0.137421,-0.3209 0.142469,-0.35225 0.272806,-0.69574 0.130337,-0.34348 0.165664,-0.5629 0.08579,-0.53289 -0.290362,-0.59345 -0.271668,-0.0437 -0.524382,0.19428 -0.251031,0.22758 -0.445388,0.63579 l -1.250514,3.23967 -1.504625,-0.24224 1.343132,-3.48203 q 0.05153,-0.12034 0.0734,-0.25617 0.07402,-0.45975 -0.239445,-0.51022 -0.292566,-0.0471 -0.555729,0.18924 -0.251031,0.22758 -0.44707,0.64624 l -1.250514,3.23967 -1.504625,-0.24224 1.948687,-5.04608 1.504625,0.24224 -0.202413,0.52484 q 0.628775,-0.50979 1.370639,-0.39035 0.919493,0.14803 0.931552,1.07186 0.717673,-0.79562 1.595371,-0.65431 0.532888,0.0858 0.799249,0.42882 0.26636,0.34304 0.170473,0.93862 -0.04879,0.30301 -0.182486,0.66739 -0.13202,0.35393 -0.353648,0.86495 -0.135739,0.31046 -0.259348,0.61214 -0.111477,0.29293 -0.140075,0.47055 -0.03364,0.20898 0.04189,0.33906 0.07553,0.13007 0.305407,0.16708 0.313464,0.0505 0.536869,-0.13867 0.225087,-0.1996 0.488865,-0.63951 l 0.438849,0.0707 q -0.57165,1.08712 -1.147565,1.40175 -0.563785,0.30586 -1.107121,0.21838 z" />
      <path
         id="path1997"
         style="font-style:normal;font-variant:normal;font-weight:normal;font-stretch:normal;font-family:Lobster;-inkscape-font-specification:Lobster;fill:#fdffff;fill-opacity:1;stroke:none;stroke-width:1;stroke-miterlimit:4;stroke-dasharray:none;stroke-opacity:1"
         d="m 27.893749,275.41189 q -0.718684,-0.0376 -1.080923,-0.40626 -0.361687,-0.37924 -0.32797,-1.02394 0.01658,-0.31707 0.105489,-0.59856 l 1.407797,-5.23587 1.575251,-0.12957 -0.631675,2.35147 q 0.305326,-0.16419 0.498329,-0.20709 0.193557,-0.0535 0.383797,-0.0435 1.247129,0.0652 1.152609,1.8725 -0.03814,0.72925 -0.367166,1.54927 -0.317906,0.81 -1.004131,1.36759 -0.675656,0.55814 -1.711407,0.50397 z m 0.645474,-0.99423 q 0.327636,0.0171 0.634,-0.36955 0.306917,-0.39727 0.507526,-0.99085 0.201162,-0.60415 0.230457,-1.1643 0.02211,-0.42276 -0.110377,-0.72643 -0.132488,-0.30366 -0.39671,-0.31748 -0.158534,-0.008 -0.362106,0.0341 -0.192451,0.0323 -0.271408,0.12358 l -0.721686,2.65409 q -0.03834,0.12517 -0.04442,0.24143 -0.02543,0.48617 0.534724,0.51546 z" />
      <path
         id="path1999"
         style="font-style:normal;font-variant:normal;font-weight:normal;font-stretch:normal;font-family:Lobster;-inkscape-font-specification:Lobster;fill:#fdffff;fill-opacity:1;stroke:none;stroke-width:1;stroke-miterlimit:4;stroke-dasharray:none;stroke-opacity:1"
         d="m 32.727524,275.53487 q -0.783071,0.0122 -1.244378,-0.38279 -0.461306,-0.39501 -0.474854,-1.26274 -0.01123,-0.71958 0.271349,-1.60251 0.282583,-0.88294 0.928757,-1.52811 0.646008,-0.65574 1.64072,-0.67128 1.354501,-0.0211 1.380937,1.67198 l 1.65e-4,0.0106 q 0.03191,0.0101 0.116568,0.009 0.349207,-0.005 0.801426,-0.19245 0.452054,-0.19758 0.818295,-0.46792 l 0.0997,0.28423 q -0.301758,0.33284 -0.795479,0.57341 -0.483304,0.22982 -1.06383,0.33415 -0.06962,0.96428 -0.407593,1.68931 -0.337972,0.72504 -0.882125,1.12516 -0.544153,0.40013 -1.189658,0.41021 z m 0.408412,-0.95899 q 0.253969,-0.004 0.503477,-0.29365 0.249343,-0.30026 0.432054,-0.80059 0.182546,-0.51091 0.257619,-1.126 -0.286706,-0.059 -0.292654,-0.43998 -0.0068,-0.43386 0.319121,-0.57655 -0.02662,-0.34888 -0.113255,-0.47454 -0.0868,-0.13625 -0.298445,-0.13294 -0.349208,0.005 -0.66932,0.51851 -0.320113,0.51306 -0.510102,1.2252 -0.189989,0.71213 -0.181563,1.25182 0.0079,0.50793 0.127142,0.68601 0.119046,0.1675 0.425926,0.16271 z" />
      <path
         id="path2001"
         style="font-style:normal;font-variant:normal;font-weight:normal;font-stretch:normal;font-family:Lobster;-inkscape-font-specification:Lobster;fill:#fdffff;fill-opacity:1;stroke:none;stroke-width:1;stroke-miterlimit:4;stroke-dasharray:none;stroke-opacity:1"
         d="m 36.881751,275.40974 q -0.506701,0.0363 -0.846077,-0.25771 -0.328819,-0.29475 -0.374193,-0.92813 -0.01891,-0.26391 0.03529,-0.69221 l 0.750649,-5.36961 1.547205,-0.32305 -0.805606,5.78736 q -0.03088,0.16137 -0.01803,0.34082 0.01513,0.21113 0.116937,0.29933 0.111613,0.0769 0.343851,0.0602 0.306132,-0.0219 0.55189,-0.29419 0.245001,-0.28281 0.331627,-0.70282 l 0.443364,-0.0318 q -0.30891,1.16806 -0.891681,1.62362 -0.583527,0.445 -1.185235,0.48811 z" />
      <path
         id="path2003"
         style="font-style:normal;font-variant:normal;font-weight:normal;font-stretch:normal;font-family:Lobster;-inkscape-font-specification:Lobster;fill:#fdffff;fill-opacity:1;stroke:none;stroke-width:1;stroke-miterlimit:4;stroke-dasharray:none;stroke-opacity:1"
         d="m 39.720441,269.18964 q -0.346813,0.0412 -0.617239,-0.17182 -0.270427,-0.21301 -0.311617,-0.55982 -0.04119,-0.34681 0.171818,-0.61724 0.211761,-0.28093 0.558573,-0.32212 0.346813,-0.0412 0.618488,0.18232 0.280935,0.21176 0.322126,0.55858 0.04119,0.34681 -0.182328,0.61848 -0.213009,0.27043 -0.559821,0.31162 z m -0.01565,5.97018 q -0.504455,0.0599 -0.857185,-0.21792 -0.342221,-0.27909 -0.417113,-0.90966 -0.0312,-0.26273 0.0029,-0.6931 l 0.31397,-3.45842 1.513364,-0.17974 -0.332293,3.66309 q -0.02332,0.16264 -0.0021,0.3413 0.02496,0.21019 0.130783,0.29354 0.11508,0.0716 0.346289,0.0441 0.304774,-0.0362 0.537554,-0.31963 0.231532,-0.29394 0.298456,-0.71754 l 0.441398,-0.0524 q -0.254045,1.1812 -0.814914,1.66347 -0.562118,0.47175 -1.161157,0.5429 z" />
      <path
         id="path2005"
         style="font-style:normal;font-variant:normal;font-weight:normal;font-stretch:normal;font-family:Lobster;-inkscape-font-specification:Lobster;fill:#fdffff;fill-opacity:1;stroke:none;stroke-width:1;stroke-miterlimit:4;stroke-dasharray:none;stroke-opacity:1"
         d="m 43.862412,273.94116 q -0.418591,0.67449 -1.125,0.81199 -0.592137,0.11526 -1.065756,-0.21305 -0.473619,-0.3283 -0.641453,-1.19054 -0.149635,-0.76874 -0.01216,-1.66883 0.145839,-0.91251 0.635127,-1.61154 0.497654,-0.71144 1.339112,-0.87523 0.425922,-0.0829 0.661999,0.0221 0.236077,0.10499 0.282585,0.34393 l 0.004,0.0208 0.0068,-0.51886 1.495924,-0.29118 -0.135258,7.72465 -1.495848,0.67931 z m -0.645899,-0.32712 q 0.228544,-0.0445 0.418668,-0.28635 0.200513,-0.24388 0.248056,-0.60894 l 0.05113,-2.6731 q -0.151858,-0.33703 -0.494674,-0.2703 -0.415534,0.0809 -0.652923,0.63385 -0.239412,0.54257 -0.292944,1.2646 -0.05555,0.71164 0.04555,1.23106 0.101104,0.51941 0.27485,0.63654 0.184135,0.11511 0.402291,0.0726 z" />
      <path
         id="path2007"
         style="font-style:normal;font-variant:normal;font-weight:normal;font-stretch:normal;font-family:Lobster;-inkscape-font-specification:Lobster;fill:#fdffff;fill-opacity:1;stroke:none;stroke-width:1;stroke-miterlimit:4;stroke-dasharray:none;stroke-opacity:1"
         d="m 47.559291,273.71423 q -0.484035,0.15419 -0.882925,-0.052 -0.388805,-0.20937 -0.581539,-0.81442 -0.08031,-0.2521 -0.128123,-0.68116 l -0.345412,-3.45542 1.452106,-0.46256 0.366108,3.65987 q 0.01793,0.16089 0.05969,0.29199 0.131701,0.41344 0.434223,0.31708 0.282354,-0.0899 0.410154,-0.38612 0.124588,-0.30627 0.113895,-0.75826 l -0.345412,-3.45542 1.452106,-0.46256 0.366108,3.65986 q 0.0078,0.16411 0.06246,0.33554 0.06424,0.20168 0.183911,0.26353 0.126539,0.0485 0.348388,-0.0221 0.282354,-0.0899 0.406942,-0.3962 0.134672,-0.30948 0.127191,-0.75139 l 0.423531,-0.13491 q -0.02619,1.20793 -0.455535,1.77788 -0.422475,0.55666 -0.977099,0.73333 -0.433615,0.13813 -0.772894,-0.0204 -0.329196,-0.16171 -0.530591,-0.6196 -0.166186,0.66384 -0.485136,0.98758 -0.308865,0.32054 -0.702144,0.44581 z" />
      <path
         id="path2009"
         style="font-style:normal;font-variant:normal;font-weight:normal;font-stretch:normal;font-family:Lobster;-inkscape-font-specification:Lobster;fill:#fdffff;fill-opacity:1;stroke:none;stroke-width:1;stroke-miterlimit:4;stroke-dasharray:none;stroke-opacity:1"
         d="m 53.02039,271.74028 q -0.698211,0.33074 -1.262521,0.15304 -0.568841,-0.18726 -0.940354,-0.97155 -0.312614,-0.65995 -0.430416,-1.57613 -0.117801,-0.91619 0.193796,-1.76643 0.307067,-0.8598 1.206133,-1.28568 1.052098,-0.49837 1.48704,0.41982 0.253716,0.53561 0.160591,1.13013 -0.09312,0.59451 -0.468655,1.11201 -0.380062,0.50793 -0.935811,0.81802 0.08055,0.21948 0.11679,0.296 0.376044,0.79386 0.969044,0.51296 0.267807,-0.12686 0.505912,-0.41531 0.238105,-0.28845 0.382578,-0.62623 0.412294,1.53788 -0.984127,2.19935 z m -1.140717,-2.45758 q 0.358922,-0.18173 0.565816,-0.56079 0.216458,-0.38359 0.240115,-0.82809 0.02869,-0.45859 -0.157066,-0.85074 -0.185757,-0.39214 -0.42487,-0.27888 -0.334758,0.15857 -0.379555,0.92928 -0.03976,0.7566 0.15556,1.58922 z" />
    </g>
    <path
       style="fill:none;fill-rule:evenodd;stroke:none;stroke-width:0.26458332px;stroke-linecap:butt;stroke-linejoin:miter;stroke-opacity:1"
       d="m 8.3572012,269.74242 c 0,0 7.3871168,5.74629 24.0542568,5.74629 16.66714,0 24.054257,-5.74629 24.054257,-5.74629"
       id="path1981" />
    <g
       id="text1985"
       style="font-style:normal;font-weight:normal;font-size:10.58333302px;line-height:125%;font-family:sans-serif;letter-spacing:0px;word-spacing:0px;fill:#fdffff;fill-opacity:1;stroke:none;stroke-width:0.40000001;stroke-linecap:butt;stroke-linejoin:miter;stroke-miterlimit:4;stroke-dasharray:none;stroke-opacity:1"
       aria-label="Calendrier">
      <path
         id="path2017"
         style="font-style:normal;font-variant:normal;font-weight:normal;font-stretch:normal;font-family:Lobster;-inkscape-font-specification:Lobster;fill:#fdffff;fill-opacity:1;stroke:none;stroke-width:0.40000001;stroke-miterlimit:4;stroke-dasharray:none;stroke-opacity:1"
         d="m 13.010225,231.40664 q -1.195916,0 -1.756833,-0.60325 -0.560917,-0.60325 -0.560917,-2.00025 0,-1.11125 0.370417,-2.39184 0.381,-1.28058 1.2065,-2.19075 0.836083,-0.92075 2.116667,-0.92075 0.79375,0 1.280583,0.34925 0.486833,0.34925 0.486833,1.06892 0,0.45508 -0.179916,0.71967 -0.179917,0.254 -0.560917,0.254 -0.381,0 -0.60325,-0.27517 0.1905,-0.0952 0.338667,-0.381 0.148166,-0.28575 0.148166,-0.59267 0,-0.28575 -0.15875,-0.46566 -0.148166,-0.17992 -0.486833,-0.17992 -0.560917,0 -1.068917,0.77258 -0.508,0.762 -0.8255,1.92617 -0.306916,1.16417 -0.306916,2.24367 0,0.80433 0.275166,1.22766 0.275167,0.42334 0.994834,0.42334 0.624416,0 1.153583,-0.27517 0.529167,-0.27517 0.910167,-0.78317 l 0.243416,0.10584 q -0.264583,0.66675 -0.783166,1.11125 -0.518584,0.4445 -1.11125,0.65616 -0.592667,0.20109 -1.121834,0.20109 z" />
      <path
         id="path2019"
         style="font-style:normal;font-variant:normal;font-weight:normal;font-stretch:normal;font-family:Lobster;-inkscape-font-specification:Lobster;fill:#fdffff;fill-opacity:1;stroke:none;stroke-width:0.40000001;stroke-miterlimit:4;stroke-dasharray:none;stroke-opacity:1"
         d="m 17.011717,231.3008 q -0.60325,0 -1.005416,-0.41275 -0.402167,-0.41275 -0.402167,-1.29116 0,-0.78317 0.306917,-1.64042 0.3175,-0.86783 0.931333,-1.4605 0.624417,-0.60325 1.481667,-0.60325 0.433916,0 0.645583,0.14817 0.211667,0.14816 0.211667,0.39158 v 0.0741 l 0.116416,-0.56091 h 1.524 l -0.762,3.59833 q -0.04233,0.15875 -0.04233,0.33867 0,0.45508 0.433917,0.45508 0.296333,0 0.508,-0.27517 0.22225,-0.27516 0.34925,-0.71966 h 0.444499 q -0.391583,1.143 -0.973666,1.55575 -0.5715,0.40216 -1.153583,0.40216 -0.4445,0 -0.719667,-0.24341 -0.264583,-0.254 -0.3175,-0.73025 -0.306917,0.43391 -0.687917,0.70908 -0.370416,0.26458 -0.889,0.26458 z m 0.687917,-1.02658 q 0.264583,0 0.518583,-0.24342 0.264584,-0.254 0.359834,-0.68791 l 0.508,-2.39184 q 0,-0.13758 -0.105834,-0.26458 -0.105833,-0.13758 -0.328083,-0.13758 -0.423333,0 -0.762,0.49741 -0.338667,0.48684 -0.529167,1.18534 -0.1905,0.68791 -0.1905,1.21708 0,0.52917 0.148167,0.67733 0.15875,0.14817 0.381,0.14817 z" />
      <path
         id="path2021"
         style="font-style:normal;font-variant:normal;font-weight:normal;font-stretch:normal;font-family:Lobster;-inkscape-font-specification:Lobster;fill:#fdffff;fill-opacity:1;stroke:none;stroke-width:0.40000001;stroke-miterlimit:4;stroke-dasharray:none;stroke-opacity:1"
         d="m 22.349851,231.3008 q -0.508,0 -0.8255,-0.3175 -0.306917,-0.3175 -0.306917,-0.9525 0,-0.26458 0.08467,-0.68791 l 1.132417,-5.30225 1.566333,-0.21167 -1.217083,5.715 q -0.04233,0.15875 -0.04233,0.33867 0,0.21166 0.09525,0.30691 0.105834,0.0847 0.338667,0.0847 0.306917,0 0.5715,-0.254 0.264583,-0.26458 0.381,-0.67733 h 0.4445 q -0.391583,1.143 -1.005417,1.55575 -0.613833,0.40216 -1.217083,0.40216 z" />
      <path
         id="path2023"
         style="font-style:normal;font-variant:normal;font-weight:normal;font-stretch:normal;font-family:Lobster;-inkscape-font-specification:Lobster;fill:#fdffff;fill-opacity:1;stroke:none;stroke-width:0.40000001;stroke-miterlimit:4;stroke-dasharray:none;stroke-opacity:1"
         d="m 25.647386,231.3008 q -0.783167,0 -1.217083,-0.40216 -0.433917,-0.41275 -0.433917,-1.28059 0,-0.73025 0.28575,-1.60866 0.28575,-0.87842 0.931333,-1.51342 0.645584,-0.64558 1.640417,-0.64558 1.164167,0 1.164167,1.016 0,0.59266 -0.338667,1.09008 -0.338667,0.49742 -0.899583,0.80433 -0.560917,0.29634 -1.195917,0.33867 -0.02117,0.3175 -0.02117,0.42333 0,0.51859 0.179917,0.70909 0.179917,0.17991 0.582083,0.17991 0.5715,0 0.973667,-0.26458 0.41275,-0.26458 0.899583,-0.80433 h 0.359834 q -1.17475,1.95791 -2.910417,1.95791 z m 0.02117,-2.70933 q 0.391583,-0.0212 0.740833,-0.27517 0.359833,-0.254 0.5715,-0.64558 0.22225,-0.39158 0.22225,-0.8255 0,-0.43392 -0.264583,-0.43392 -0.381,0 -0.751417,0.66675 -0.359833,0.66675 -0.518583,1.51342 z" />
      <path
         id="path2025"
         style="font-style:normal;font-variant:normal;font-weight:normal;font-stretch:normal;font-family:Lobster;-inkscape-font-specification:Lobster;fill:#fdffff;fill-opacity:1;stroke:none;stroke-width:0.40000001;stroke-miterlimit:4;stroke-dasharray:none;stroke-opacity:1"
         d="m 32.026655,231.3008 q -0.645583,0 -0.9525,-0.33866 -0.296333,-0.34925 -0.296333,-0.85725 0,-0.22225 0.05292,-0.49742 0.05292,-0.28575 0.105834,-0.55033 0.0635,-0.26459 0.08467,-0.33867 0.08467,-0.37042 0.15875,-0.73025 0.07408,-0.35983 0.07408,-0.58208 0,-0.53975 -0.381,-0.53975 -0.275167,0 -0.486834,0.27516 -0.211666,0.26459 -0.338666,0.6985 l -0.719667,3.39725 h -1.524 l 1.121833,-5.29166 h 1.524 l -0.116416,0.55033 q 0.529166,-0.59267 1.23825,-0.59267 0.53975,0 0.85725,0.29634 0.3175,0.29633 0.3175,0.89958 0,0.30692 -0.07408,0.68792 -0.07408,0.37041 -0.211666,0.91016 -0.08467,0.32809 -0.15875,0.64559 -0.0635,0.30691 -0.0635,0.48683 0,0.21167 0.09525,0.32808 0.09525,0.11642 0.328083,0.11642 0.3175,0 0.508,-0.22225 0.1905,-0.23283 0.381,-0.70908 h 0.4445 q -0.391583,1.16416 -0.910167,1.56633 -0.508,0.39158 -1.058333,0.39158 z" />
      <path
         id="path2027"
         style="font-style:normal;font-variant:normal;font-weight:normal;font-stretch:normal;font-family:Lobster;-inkscape-font-specification:Lobster;fill:#fdffff;fill-opacity:1;stroke:none;stroke-width:0.40000001;stroke-miterlimit:4;stroke-dasharray:none;stroke-opacity:1"
         d="m 34.82975,231.3008 q -0.60325,0 -1.005417,-0.41275 -0.402167,-0.41275 -0.402167,-1.29116 0,-0.78317 0.306917,-1.64042 0.3175,-0.86783 0.931333,-1.4605 0.624417,-0.60325 1.481667,-0.60325 0.433917,0 0.645583,0.14817 0.211667,0.14816 0.211667,0.39158 v 0.0423 l 0.518583,-2.43416 1.566333,-0.21167 -1.217083,5.715 q -0.04233,0.15875 -0.04233,0.33867 0,0.21166 0.09525,0.30691 0.105833,0.0847 0.338666,0.0847 0.296334,0 0.508,-0.254 0.22225,-0.254 0.34925,-0.67733 h 0.4445 q -0.645583,1.89441 -2.12725,1.89441 -0.433916,0 -0.709083,-0.23283 -0.264583,-0.23283 -0.328083,-0.67733 -0.275167,0.42333 -0.66675,0.6985 -0.381,0.27516 -0.899583,0.27516 z m 0.687916,-1.02658 q 0.254,0 0.508,-0.23283 0.264584,-0.23284 0.359834,-0.64559 v -0.0529 l 0.518583,-2.42359 q -0.09525,-0.37041 -0.433917,-0.37041 -0.423333,0 -0.762,0.49741 -0.338666,0.48684 -0.529166,1.18534 -0.1905,0.68791 -0.1905,1.21708 0,0.52917 0.148166,0.67733 0.15875,0.14817 0.381,0.14817 z" />
      <path
         id="path2029"
         style="font-style:normal;font-variant:normal;font-weight:normal;font-stretch:normal;font-family:Lobster;-inkscape-font-specification:Lobster;fill:#fdffff;fill-opacity:1;stroke:none;stroke-width:0.40000001;stroke-miterlimit:4;stroke-dasharray:none;stroke-opacity:1"
         d="m 39.839801,225.94564 h 1.524 l -0.137583,0.65616 q 0.359833,-0.3175 0.645583,-0.48683 0.296333,-0.16933 0.635,-0.16933 0.338667,0 0.529167,0.23283 0.201083,0.23283 0.201083,0.56092 0,0.30691 -0.201083,0.53975 -0.201084,0.23283 -0.560917,0.23283 -0.232833,0 -0.3175,-0.10583 -0.07408,-0.11642 -0.116417,-0.32809 -0.03175,-0.13758 -0.0635,-0.20108 -0.03175,-0.0635 -0.116416,-0.0635 -0.22225,0 -0.381,0.0952 -0.148167,0.0847 -0.391584,0.30692 l -0.846666,4.02166 h -1.524 z" />
      <path
         id="path2031"
         style="font-style:normal;font-variant:normal;font-weight:normal;font-stretch:normal;font-family:Lobster;-inkscape-font-specification:Lobster;fill:#fdffff;fill-opacity:1;stroke:none;stroke-width:0.40000001;stroke-miterlimit:4;stroke-dasharray:none;stroke-opacity:1"
         d="m 44.876973,225.37414 q -0.34925,0 -0.592667,-0.24342 -0.243416,-0.24342 -0.243416,-0.59267 0,-0.34925 0.243416,-0.59266 0.243417,-0.254 0.592667,-0.254 0.34925,0 0.592666,0.254 0.254,0.24341 0.254,0.59266 0,0.34925 -0.254,0.59267 -0.243416,0.24342 -0.592666,0.24342 z m -0.719667,5.92666 q -0.508,0 -0.8255,-0.3175 -0.306916,-0.3175 -0.306916,-0.9525 0,-0.26458 0.08467,-0.68791 l 0.719667,-3.39725 h 1.524 l -0.762,3.59833 q -0.04233,0.15875 -0.04233,0.33867 0,0.21166 0.09525,0.30691 0.105834,0.0847 0.338667,0.0847 0.306917,0 0.5715,-0.254 0.264583,-0.26458 0.381,-0.67733 h 0.4445 q -0.391583,1.143 -1.005417,1.55575 -0.613833,0.40216 -1.217083,0.40216 z" />
      <path
         id="path2033"
         style="font-style:normal;font-variant:normal;font-weight:normal;font-stretch:normal;font-family:Lobster;-inkscape-font-specification:Lobster;fill:#fdffff;fill-opacity:1;stroke:none;stroke-width:0.40000001;stroke-miterlimit:4;stroke-dasharray:none;stroke-opacity:1"
         d="m 47.45484,231.3008 q -0.783167,0 -1.217083,-0.40216 -0.433917,-0.41275 -0.433917,-1.28059 0,-0.73025 0.28575,-1.60866 0.28575,-0.87842 0.931333,-1.51342 0.645584,-0.64558 1.640417,-0.64558 1.164167,0 1.164167,1.016 0,0.59266 -0.338667,1.09008 -0.338667,0.49742 -0.899583,0.80433 -0.560917,0.29634 -1.195917,0.33867 -0.02117,0.3175 -0.02117,0.42333 0,0.51859 0.179917,0.70909 0.179917,0.17991 0.582083,0.17991 0.5715,0 0.973667,-0.26458 0.41275,-0.26458 0.899583,-0.80433 h 0.359834 q -1.17475,1.95791 -2.910417,1.95791 z m 0.02117,-2.70933 q 0.391583,-0.0212 0.740833,-0.27517 0.359833,-0.254 0.5715,-0.64558 0.22225,-0.39158 0.22225,-0.8255 0,-0.43392 -0.264583,-0.43392 -0.381,0 -0.751417,0.66675 -0.359833,0.66675 -0.518583,1.51342 z" />
      <path
         id="path2035"
         style="font-style:normal;font-variant:normal;font-weight:normal;font-stretch:normal;font-family:Lobster;-inkscape-font-specification:Lobster;fill:#fdffff;fill-opacity:1;stroke:none;stroke-width:0.40000001;stroke-miterlimit:4;stroke-dasharray:none;stroke-opacity:1"
         d="m 50.733192,225.94564 h 1.524 l -0.137584,0.65616 q 0.359834,-0.3175 0.645584,-0.48683 0.296333,-0.16933 0.635,-0.16933 0.338666,0 0.529166,0.23283 0.201084,0.23283 0.201084,0.56092 0,0.30691 -0.201084,0.53975 -0.201083,0.23283 -0.560916,0.23283 -0.232834,0 -0.3175,-0.10583 -0.07408,-0.11642 -0.116417,-0.32809 -0.03175,-0.13758 -0.0635,-0.20108 -0.03175,-0.0635 -0.116417,-0.0635 -0.22225,0 -0.381,0.0952 -0.148166,0.0847 -0.391583,0.30692 l -0.846667,4.02166 h -1.524 z" />
    </g>
    <path
       style="fill:none;fill-rule:evenodd;stroke:none;stroke-width:0.26458332px;stroke-linecap:butt;stroke-linejoin:miter;stroke-opacity:1"
       d="m 11.790023,236.12412 c 0,0 10.245332,-5.21176 21.381562,-5.21176 11.13623,0 21.381562,5.21176 21.381562,5.21176"
       id="path1987" />
  </g>
  <g
     style="display:inline"
     id="layer4">
    <path
       style="display:inline;opacity:1;vector-effect:non-scaling-stroke;fill:none;fill-opacity:1;stroke:#ffffff;stroke-width:3.96875;stroke-linecap:round;stroke-linejoin:round;stroke-miterlimit:4;stroke-dasharray:none;stroke-opacity:1"
       d="m 29.021135,261.93145 c 2.020208,-1.47155 2.195211,-4.35231 2.415461,-5.84177 0.04658,-2.67646 -0.430477,1.30526 -4.313187,1.67687 -3.882719,0.37096 -6.792638,-4.46259 -4.613387,-8.84576 1.980953,-3.92269 7.081377,-6.62817 9.920713,-11.57367 2.839336,4.9455 7.796696,7.55344 9.920049,11.57367 2.193881,4.41714 -1.253694,9.08112 -4.659969,8.83607 -3.406266,-0.37098 -4.520796,-4.32079 -4.40967,-1.6641 0.184327,1.51848 0.609518,4.19431 2.487332,5.83005 -2.83934,0 -3.907338,0.009 -6.747338,0.009 z"
       stroke-miterlimit="4"
       class="symbole-logo"
       id="pique-logo"
       transform="translate(0,-202.27915)" />
    <path
       style="display:inline;vector-effect:non-scaling-stroke;fill:none;fill-opacity:1;stroke:#ff0000;stroke-width:3.5;stroke-linecap:round;stroke-linejoin:round;stroke-miterlimit:4;stroke-dasharray:none;stroke-opacity:1"
       d="m 26.339777,246.14966 c 0.0055,4.18336 4.674896,7.23001 6.042046,10.54195 1.379178,-3.30395 6.062645,-6.32372 6.087006,-10.50671 0.01064,-1.97285 -1.349659,-3.57794 -3.024284,-3.58193 -1.674966,-0.004 -3.035264,1.58946 -3.040069,3.56595 0.0048,-1.97649 -1.34966,-3.57795 -3.024624,-3.58158 -1.674628,-0.0229 -3.034584,1.58983 -3.040073,3.56232 v 0 0 0 z"
       class="symbole-logo"
       id="coeur-logo"
       transform="translate(0,-202.27915)" />
    <path
       style="display:inline;vector-effect:non-scaling-stroke;fill:none;fill-opacity:1;stroke:#ffffff;stroke-width:3;stroke-linecap:round;stroke-linejoin:round;stroke-miterlimit:4;stroke-dasharray:none;stroke-opacity:1"
       class="symbole-logo"
       id="trefle-logo"
       d="m 32.404345,245.691 c -0.933927,0 -1.691885,0.79798 -1.691885,1.78144 0.0082,0.61903 0.326575,1.14204 0.657963,1.63951 -0.369387,-0.28031 -0.779869,-0.44996 -1.221912,-0.45175 -0.933909,0 -1.691865,0.79818 -1.691865,1.78165 0,0.98347 0.757956,1.78164 1.691865,1.78164 0.756538,-0.0127 1.475629,-0.38008 1.956222,-0.9898 -0.10641,1.33307 -0.183943,1.67732 -0.705867,2.35394 0.939946,0 1.131016,0 2.070942,0 -0.50732,-0.68098 -0.659482,-1.02087 -0.765873,-2.35394 0.571252,0.7178 1.204067,0.93398 1.956302,0.9898 0.933827,0 1.691785,-0.79817 1.691785,-1.78164 0,-0.98347 -0.757958,-1.78165 -1.691785,-1.78165 -0.453394,0 -0.845006,0.20925 -1.222011,0.45175 0.375033,-0.49232 0.62196,-1.02365 0.657883,-1.63951 0,-0.98346 -0.757958,-1.78144 -1.691766,-1.78144 z"
       transform="translate(0,-202.27915)" />
    <path
       style="display:inline;vector-effect:non-scaling-stroke;fill:none;fill-opacity:1;stroke:#ff0000;stroke-width:3;stroke-linecap:round;stroke-linejoin:round;stroke-miterlimit:4;stroke-dasharray:none;stroke-opacity:1"
       d="m 32.404339,247.66472 c -0.453165,0.6975 -0.973323,1.35571 -1.544185,1.97248 0.571413,0.61656 1.100401,1.2731 1.544185,1.97672 0.443774,-0.70362 0.972762,-1.36016 1.544174,-1.97672 -0.570851,-0.61677 -1.091021,-1.27498 -1.544174,-1.97248 z"
       class="symbole-logo"
       id="carreau-logo"
       transform="translate(0,-202.27915)" />
  </g>
</svg>
